<?xml version="1.0" encoding="utf-8"?>
<!-- Generator: Adobe Illustrator 15.0.2, SVG Export Plug-In . SVG Version: 6.00 Build 0)  -->
<!DOCTYPE svg PUBLIC "-//W3C//DTD SVG 1.1//EN" "http://www.w3.org/Graphics/SVG/1.1/DTD/svg11.dtd">
<svg version="1.1" id="Calque_1" xmlns="http://www.w3.org/2000/svg" xmlns:xlink="http://www.w3.org/1999/xlink" x="0px" y="0px"
	 width="524px" height="40px" viewBox="10.5 0 524 40" enable-background="new 10.5 0 524 40" xml:space="preserve">
<g enable-background="new    ">
	<path d="M46.23,13.411c0,4.624-1.086,8.055-3.26,10.292c-2.173,2.236-5.701,3.355-10.583,3.355h-6.38v11.873h-7.823V0.54H32.61
		c4.346,0,7.702,1.012,10.07,3.038C45.047,5.602,46.23,8.88,46.23,13.411z M38.158,13.467c0-2.164-0.596-3.727-1.789-4.688
		c-1.193-0.961-3.343-1.442-6.45-1.442h-3.912v12.899h3.19c2.866,0,4.85-0.198,5.95-0.597c1.1-0.397,1.877-1.068,2.33-2.011
		C37.931,16.685,38.158,15.297,38.158,13.467z"/>
	<path d="M83.847,19.736c0,6.676-1.41,11.679-4.23,15.008c-2.82,3.328-6.921,4.992-12.303,4.992c-5.678,0-9.853-1.752-12.525-5.256
		c-2.672-3.506-4.008-8.42-4.008-14.745c0-6.362,1.336-11.286,4.008-14.772c2.672-3.486,6.847-5.229,12.525-5.229
		c5.714,0,9.898,1.743,12.552,5.229C82.52,8.45,83.847,13.374,83.847,19.736z M75.774,19.736c0-4.55-0.643-7.865-1.928-9.945
		C72.561,7.71,70.383,6.67,67.313,6.67s-5.248,1.041-6.533,3.121c-1.286,2.081-1.928,5.396-1.928,9.945
		c0,4.549,0.652,7.864,1.956,9.944c1.304,2.081,3.472,3.121,6.505,3.121c3.069,0,5.247-1.04,6.533-3.121
		C75.131,27.602,75.774,24.285,75.774,19.736z"/>
	<path d="M90.394,38.934V0.54h7.823v31.235h16.145v7.158H90.394L90.394,38.934z"/>
	<path d="M119.188,38.934V0.54h7.823v31.235h16.145v7.158H119.188L119.188,38.934z"/>
	<path d="M178.415,22.898c0,6.011-1.221,10.328-3.662,12.955c-2.441,2.625-6.482,3.938-12.123,3.938
		c-5.585,0-9.612-1.3-12.081-3.897c-2.469-2.599-3.704-6.931-3.704-12.996V0.54h7.823v21.804c0,2.607,0.25,4.66,0.749,6.158
		c0.5,1.498,1.294,2.6,2.386,3.303c1.091,0.701,2.681,1.053,4.771,1.053c2.978,0,5.058-0.791,6.242-2.371
		c1.183-1.582,1.775-4.258,1.775-8.03V0.54h7.823L178.415,22.898L178.415,22.898z"/>
	<path d="M203.188,7.696v31.236h-7.823V7.696h-11.818V0.54h31.458v7.157L203.188,7.696L203.188,7.696z"/>
	<path d="M237.336,38.934h-18.531v-6.021h5.354V6.559h-5.354V0.54h18.531v6.02h-5.326v26.354h5.326V38.934z"/>
	<path d="M275.619,19.736c0,6.676-1.41,11.679-4.23,15.008c-2.82,3.328-6.921,4.992-12.303,4.992c-5.678,0-9.853-1.752-12.525-5.256
		c-2.672-3.506-4.008-8.42-4.008-14.745c0-6.362,1.336-11.286,4.008-14.772c2.672-3.486,6.847-5.229,12.525-5.229
		c5.714,0,9.898,1.743,12.552,5.229C274.292,8.45,275.619,13.374,275.619,19.736z M267.546,19.736c0-4.55-0.643-7.865-1.928-9.945
		c-1.286-2.081-3.463-3.121-6.533-3.121s-5.248,1.041-6.533,3.121c-1.286,2.081-1.928,5.396-1.928,9.945
		c0,4.549,0.652,7.864,1.956,9.944c1.304,2.081,3.472,3.121,6.505,3.121c3.069,0,5.247-1.04,6.533-3.121
		C266.903,27.602,267.546,24.285,267.546,19.736z"/>
	<path d="M303.803,38.934l-13.981-27.437v27.437h-7.656V0.54h10.153l13.01,25.882V0.54h7.684v38.394H303.803L303.803,38.934z"/>
</g>
<g enable-background="new    ">
	<path fill="#374140" d="M332.668,39.602V0.523h3.177v39.079H332.668z"/>
</g>
<g enable-background="new    ">
	<path fill="#374140" d="M366.991,5.123c-0.392-0.636-0.868-1.104-1.429-1.407c-0.562-0.303-1.267-0.454-2.116-0.454
		c-1.396,0-2.406,0.448-3.03,1.346s-0.936,2.232-0.936,4.005c0,1.759,0.308,3.046,0.925,3.861c0.616,0.816,1.608,1.225,2.975,1.225
		c1.034,0,1.987-0.215,2.858-0.643v-2.382h-2.991V7.915h6.126v6.78c-0.709,0.531-1.59,0.96-2.642,1.285
		c-1.053,0.325-2.137,0.487-3.252,0.487c-2.393,0-4.195-0.624-5.407-1.872c-1.212-1.248-1.817-3.242-1.817-5.983
		c0-5.413,2.382-8.12,7.146-8.12c1.389,0,2.6,0.232,3.634,0.697c1.034,0.466,1.82,1.148,2.36,2.05L366.991,5.123z"/>
	<path fill="#374140" d="M379.488,7.316c-0.295-0.147-0.687-0.222-1.174-0.222c-0.532,0-1.036,0.128-1.513,0.383
		c-0.476,0.254-0.965,0.626-1.468,1.113v7.556h-2.858V4.524h2.858v1.662c0.487-0.532,1.012-0.972,1.573-1.318
		c0.561-0.348,1.189-0.521,1.883-0.521c0.591,0,1.012,0.077,1.263,0.232L379.488,7.316z"/>
	<path fill="#374140" d="M383.687,11.083c0.052,1.034,0.303,1.776,0.753,2.228c0.45,0.45,1.16,0.676,2.127,0.676
		c0.562,0,1.055-0.07,1.479-0.211c0.424-0.14,0.795-0.41,1.113-0.809l2.127,1.518c-0.465,0.673-1.069,1.175-1.811,1.507
		c-0.743,0.333-1.756,0.499-3.042,0.499c-1.913,0-3.34-0.503-4.282-1.507c-0.941-1.005-1.413-2.522-1.413-4.554
		c0-4.158,1.861-6.237,5.584-6.237c1.654,0,2.916,0.467,3.784,1.401c0.868,0.935,1.302,2.295,1.302,4.083v1.406H383.687z
		 M388.573,9.111c0-1.766-0.772-2.648-2.315-2.648c-0.51,0-0.927,0.087-1.252,0.261c-0.325,0.174-0.585,0.433-0.781,0.775
		c-0.195,0.344-0.349,0.881-0.459,1.612H388.573z"/>
	<path fill="#374140" d="M401.479,16.146V9.743c0-1.212-0.109-2.021-0.327-2.427c-0.218-0.406-0.63-0.609-1.235-0.609
		c-0.849,0-1.872,0.562-3.069,1.684v7.756h-2.858V4.524h2.858v1.507c0.605-0.605,1.252-1.063,1.939-1.374
		c0.687-0.31,1.359-0.465,2.016-0.465c1.189,0,2.076,0.325,2.659,0.975s0.875,1.725,0.875,3.224v7.756L401.479,16.146
		L401.479,16.146z"/>
	<path fill="#374140" d="M418.032,10.363c0,1.936-0.447,3.44-1.341,4.515c-0.894,1.075-2.301,1.612-4.221,1.612
		c-3.723,0-5.584-2.043-5.584-6.127c0-1.965,0.447-3.484,1.341-4.56c0.894-1.074,2.308-1.611,4.243-1.611
		c1.92,0,3.328,0.537,4.221,1.611C417.585,6.879,418.032,8.398,418.032,10.363z M415.074,10.363c0-1.277-0.199-2.21-0.598-2.798
		c-0.399-0.587-1.067-0.881-2.005-0.881c-0.931,0-1.603,0.302-2.016,0.903c-0.414,0.603-0.621,1.527-0.621,2.775
		c0,1.241,0.205,2.155,0.615,2.742c0.41,0.587,1.084,0.881,2.022,0.881c0.923,0,1.588-0.29,1.994-0.87
		C414.871,12.535,415.074,11.619,415.074,10.363z"/>
	<path fill="#374140" d="M431.504,10.252c0,1.928-0.405,3.45-1.213,4.565c-0.808,1.115-1.963,1.673-3.462,1.673
		c-0.591,0-1.235-0.135-1.934-0.404c-0.697-0.269-1.254-0.611-1.667-1.025l-0.388,1.086h-2.183V-0.351h2.857v5.806
		c1.05-0.842,2.208-1.263,3.479-1.263c1.558,0,2.699,0.537,3.423,1.611C431.142,6.879,431.504,8.361,431.504,10.252z
		 M428.557,10.297c0-1.196-0.188-2.094-0.564-2.692c-0.377-0.599-0.982-0.897-1.817-0.897c-0.465,0-0.937,0.109-1.413,0.327
		c-0.477,0.218-0.892,0.485-1.247,0.803v5.086c0.317,0.273,0.704,0.515,1.158,0.726c0.454,0.21,0.896,0.315,1.324,0.315
		c0.82,0,1.451-0.312,1.895-0.937S428.557,11.493,428.557,10.297z"/>
	<path fill="#374140" d="M434.141,16.146V-0.351H437v16.497H434.141z"/>
	<path fill="#374140" d="M442.583,11.083c0.052,1.034,0.303,1.776,0.753,2.228c0.45,0.45,1.16,0.676,2.127,0.676
		c0.562,0,1.055-0.07,1.479-0.211c0.424-0.14,0.795-0.41,1.112-0.809l2.127,1.518c-0.465,0.673-1.068,1.175-1.811,1.507
		c-0.743,0.333-1.756,0.499-3.042,0.499c-1.913,0-3.34-0.503-4.282-1.507c-0.94-1.005-1.413-2.522-1.413-4.554
		c0-4.158,1.861-6.237,5.584-6.237c1.654,0,2.916,0.467,3.784,1.401c0.868,0.935,1.302,2.295,1.302,4.083v1.406H442.583z
		 M447.469,9.111c0-1.766-0.771-2.648-2.314-2.648c-0.511,0-0.928,0.087-1.252,0.261c-0.325,0.174-0.585,0.433-0.781,0.775
		c-0.195,0.344-0.35,0.881-0.459,1.612H447.469z"/>
</g>
<g enable-background="new    ">
	<path fill="#374140" d="M363.656,38.837v-1.208c-1.13,1.034-2.341,1.553-3.634,1.553c-1.285,0-2.256-0.339-2.914-1.015
		c-0.657-0.676-0.986-1.542-0.986-2.599c0-0.827,0.168-1.51,0.504-2.051c0.336-0.539,0.835-0.961,1.496-1.269
		c0.661-0.306,1.612-0.522,2.853-0.647l2.449-0.232v-0.521c0-0.648-0.196-1.095-0.587-1.334c-0.391-0.24-0.964-0.361-1.717-0.361
		c-0.62,0-1.154,0.104-1.601,0.312c-0.447,0.207-0.777,0.503-0.991,0.888l-2.227-1.431c0.392-0.657,1.004-1.161,1.839-1.512
		c0.834-0.353,1.843-0.526,3.024-0.526c1.81,0,3.115,0.315,3.917,0.947c0.801,0.631,1.202,1.667,1.202,3.107v7.898L363.656,38.837
		L363.656,38.837z M360.797,25.453l-3.312-3.999h3.49l2.083,3.999H360.797z M363.423,33.441l-1.452,0.133
		c-1.026,0.089-1.767,0.283-2.221,0.587s-0.681,0.758-0.681,1.362c0,0.531,0.147,0.896,0.443,1.092
		c0.295,0.195,0.687,0.294,1.174,0.294c0.347,0,0.77-0.109,1.269-0.327s0.988-0.525,1.468-0.925V33.441z"/>
	<path fill="#374140" d="M385.714,32.941c0,1.929-0.405,3.451-1.213,4.565c-0.808,1.115-1.963,1.673-3.462,1.673
		c-0.591,0-1.235-0.135-1.933-0.404c-0.698-0.269-1.254-0.61-1.667-1.024l-0.388,1.086h-2.183V22.34h2.858v5.807
		c1.049-0.842,2.208-1.264,3.479-1.264c1.558,0,2.699,0.537,3.423,1.611S385.714,31.052,385.714,32.941z M382.767,32.986
		c0-1.195-0.188-2.094-0.565-2.691c-0.377-0.6-0.982-0.896-1.817-0.896c-0.465,0-0.937,0.108-1.413,0.326
		c-0.477,0.219-0.892,0.485-1.247,0.803v5.087c0.317,0.272,0.704,0.515,1.158,0.726c0.454,0.21,0.896,0.314,1.324,0.314
		c0.82,0,1.451-0.312,1.895-0.937C382.545,35.094,382.767,34.184,382.767,32.986z"/>
	<path fill="#374140" d="M398.91,33.055c0,1.936-0.447,3.439-1.341,4.514c-0.894,1.076-2.301,1.613-4.221,1.613
		c-3.723,0-5.584-2.043-5.584-6.127c0-1.966,0.447-3.484,1.341-4.561c0.894-1.074,2.308-1.611,4.243-1.611
		c1.92,0,3.328,0.537,4.221,1.611S398.91,31.089,398.91,33.055z M395.951,33.055c0-1.277-0.199-2.211-0.598-2.799
		c-0.399-0.587-1.067-0.881-2.005-0.881c-0.931,0-1.603,0.302-2.016,0.902c-0.414,0.604-0.621,1.527-0.621,2.775
		c0,1.241,0.205,2.155,0.615,2.742c0.41,0.587,1.084,0.881,2.022,0.881c0.923,0,1.588-0.29,1.994-0.869
		C395.748,35.227,395.951,34.311,395.951,33.055z"/>
	<path fill="#374140" d="M408.936,38.837v-1.496c-0.502,0.54-1.117,0.979-1.845,1.324c-0.728,0.344-1.427,0.517-2.1,0.517
		c-1.314,0-2.234-0.365-2.758-1.093c-0.525-0.728-0.787-1.763-0.787-3.106v-7.768h2.858v6.404c0,0.818,0.048,1.447,0.144,1.883
		c0.096,0.438,0.252,0.737,0.471,0.902c0.218,0.166,0.537,0.25,0.958,0.25c0.849,0,1.868-0.559,3.058-1.674v-7.767h2.858v11.622
		L408.936,38.837L408.936,38.837z"/>
	<path fill="#374140" d="M421.444,38.837c-0.769,0.229-1.577,0.345-2.426,0.345c-1.344,0-2.312-0.305-2.903-0.91
		c-0.591-0.604-0.886-1.588-0.886-2.945v-5.84h-1.474v-2.271h1.474V23.98h2.858v3.235h2.704v2.271h-2.704v5.474
		c0,0.726,0.113,1.215,0.338,1.474c0.225,0.26,0.545,0.389,0.958,0.389c0.524,0,1.045-0.106,1.562-0.321L421.444,38.837z"/>
	<path fill="#374140" d="M436.29,38.837v-1.13c-0.532,0.45-1.093,0.809-1.684,1.074c-0.592,0.267-1.264,0.398-2.018,0.398
		c-1.462,0-2.582-0.527-3.356-1.584c-0.775-1.057-1.164-2.549-1.164-4.477c0-1.973,0.427-3.505,1.279-4.598
		c0.854-1.094,2.052-1.641,3.596-1.641c0.546,0,1.107,0.112,1.684,0.338c0.576,0.227,1.053,0.512,1.429,0.858V22.34h2.858v16.497
		H436.29z M436.058,30.438c-0.303-0.271-0.678-0.515-1.125-0.726c-0.446-0.21-0.902-0.315-1.367-0.315
		c-0.77,0-1.386,0.332-1.852,0.992c-0.465,0.66-0.698,1.557-0.698,2.688c0,1.115,0.19,1.99,0.571,2.625
		c0.38,0.636,0.969,0.953,1.767,0.953c0.473,0,0.954-0.108,1.446-0.327c0.491-0.218,0.91-0.485,1.257-0.804L436.058,30.438
		L436.058,30.438z"/>
	<path fill="#374140" d="M444.5,33.773c0.052,1.033,0.303,1.775,0.753,2.228c0.45,0.45,1.16,0.676,2.127,0.676
		c0.562,0,1.055-0.069,1.479-0.211c0.424-0.14,0.795-0.409,1.112-0.809l2.127,1.518c-0.465,0.673-1.068,1.175-1.811,1.507
		c-0.743,0.334-1.756,0.5-3.042,0.5c-1.913,0-3.34-0.504-4.282-1.508c-0.94-1.005-1.413-2.521-1.413-4.554
		c0-4.158,1.861-6.237,5.584-6.237c1.654,0,2.916,0.467,3.784,1.401s1.302,2.295,1.302,4.083v1.406H444.5z M449.386,31.802
		c0-1.766-0.771-2.647-2.314-2.647c-0.511,0-0.928,0.087-1.252,0.261c-0.325,0.174-0.585,0.433-0.781,0.774
		c-0.195,0.345-0.349,0.881-0.459,1.612H449.386z"/>
	<path fill="#374140" d="M469.129,35.523c0,0.77-0.194,1.427-0.582,1.973c-0.388,0.547-0.938,0.964-1.65,1.252
		c-0.714,0.288-1.527,0.434-2.443,0.434c-2.43,0-4.085-0.677-4.964-2.027l2.127-1.496c0.347,0.473,0.748,0.787,1.202,0.947
		c0.454,0.158,0.939,0.237,1.457,0.237c1.358,0,2.037-0.396,2.037-1.186c0-0.347-0.191-0.615-0.575-0.804s-0.986-0.383-1.807-0.582
		c-1.544-0.34-2.629-0.819-3.257-1.439s-0.94-1.426-0.94-2.415c0-1.026,0.393-1.873,1.18-2.537c0.787-0.665,1.944-0.997,3.473-0.997
		c1.042,0,1.959,0.166,2.753,0.498c0.794,0.333,1.405,0.831,1.833,1.496l-2.138,1.518c-0.51-0.781-1.341-1.174-2.493-1.174
		c-0.591,0-1.038,0.103-1.341,0.305c-0.303,0.203-0.454,0.463-0.454,0.781c0,0.303,0.137,0.545,0.41,0.726
		c0.272,0.182,0.812,0.372,1.618,0.571c1.322,0.324,2.266,0.646,2.831,0.969c0.564,0.32,0.994,0.721,1.285,1.197
		C468.983,34.244,469.129,34.83,469.129,35.523z"/>
	<path fill="#374140" d="M482.18,33.055c0,1.936-0.446,3.439-1.341,4.514c-0.894,1.076-2.301,1.613-4.221,1.613
		c-3.724,0-5.584-2.043-5.584-6.127c0-1.966,0.446-3.484,1.341-4.561c0.894-1.074,2.308-1.611,4.243-1.611
		c1.92,0,3.328,0.537,4.221,1.611C481.733,29.568,482.18,31.089,482.18,33.055z M479.222,33.055c0-1.277-0.198-2.211-0.598-2.799
		c-0.399-0.587-1.067-0.881-2.005-0.881c-0.932,0-1.604,0.302-2.016,0.902c-0.414,0.604-0.621,1.527-0.621,2.775
		c0,1.241,0.205,2.155,0.614,2.742c0.41,0.587,1.084,0.881,2.022,0.881c0.923,0,1.588-0.29,1.994-0.869
		C479.019,35.227,479.222,34.311,479.222,33.055z"/>
	<path fill="#374140" d="M492.207,38.837v-1.496c-0.502,0.54-1.117,0.979-1.845,1.324c-0.729,0.344-1.428,0.517-2.101,0.517
		c-1.313,0-2.233-0.365-2.758-1.093c-0.525-0.728-0.787-1.763-0.787-3.106v-7.768h2.858v6.404c0,0.818,0.048,1.447,0.144,1.883
		c0.097,0.438,0.252,0.737,0.472,0.902c0.218,0.166,0.536,0.25,0.958,0.25c0.849,0,1.867-0.559,3.058-1.674v-7.767h2.858v11.622
		L492.207,38.837L492.207,38.837z"/>
	<path fill="#374140" d="M504.416,24.768c-0.532-0.179-1.045-0.267-1.54-0.267c-0.562,0-0.947,0.116-1.157,0.349
		c-0.211,0.232-0.315,0.646-0.315,1.235v1.13h2.358v2.271h-2.358v9.351h-2.858v-9.351h-1.474v-2.271h1.474v-1.13
		c0-1.44,0.356-2.481,1.069-3.124c0.712-0.643,1.784-0.964,3.219-0.964c0.672,0,1.385,0.092,2.138,0.276L504.416,24.768z
		 M511.717,24.768c-0.531-0.179-1.045-0.267-1.54-0.267c-0.562,0-0.946,0.116-1.157,0.349s-0.315,0.646-0.315,1.235v1.13h2.36v2.271
		h-2.36v9.351h-2.857v-9.351h-1.475v-2.271h1.475v-1.13c0-1.44,0.355-2.481,1.068-3.124s1.785-0.964,3.219-0.964
		c0.672,0,1.385,0.092,2.14,0.276L511.717,24.768z M512.902,38.837V22.34h2.857v16.497H512.902z"/>
	<path fill="#374140" d="M521.345,33.773c0.052,1.033,0.304,1.775,0.753,2.228c0.451,0.45,1.16,0.676,2.127,0.676
		c0.562,0,1.056-0.069,1.48-0.211c0.424-0.14,0.795-0.409,1.113-0.809l2.127,1.518c-0.467,0.673-1.069,1.175-1.812,1.507
		c-0.743,0.334-1.757,0.5-3.042,0.5c-1.912,0-3.34-0.504-4.281-1.508c-0.94-1.005-1.413-2.521-1.413-4.554
		c0-4.158,1.861-6.237,5.584-6.237c1.654,0,2.915,0.467,3.784,1.401c0.867,0.935,1.302,2.295,1.302,4.083v1.406H521.345z
		 M526.23,31.802c0-1.766-0.771-2.647-2.315-2.647c-0.51,0-0.927,0.087-1.252,0.261s-0.585,0.433-0.781,0.774
		c-0.195,0.345-0.349,0.881-0.46,1.612H526.23z"/>
</g>
</svg>
