<?xml version="1.0" encoding="utf-8"?>
<!-- Generator: Adobe Illustrator 15.0.2, SVG Export Plug-In . SVG Version: 6.00 Build 0)  -->
<!DOCTYPE svg PUBLIC "-//W3C//DTD SVG 1.1//EN" "http://www.w3.org/Graphics/SVG/1.1/DTD/svg11.dtd">
<svg version="1.1" id="Calque_1" xmlns="http://www.w3.org/2000/svg" xmlns:xlink="http://www.w3.org/1999/xlink" x="0px" y="0px"
	 width="500px" height="500px" viewBox="0 0 500 500" enable-background="new 0 0 500 500" xml:space="preserve">
<g>
	<path fill="#E73C2B" stroke="#E73C2B" stroke-miterlimit="10" d="M23.88,144.722L151.481,20.25
		C95.119,44.559,49.539,89.096,23.88,144.722z"/>
	<path opacity="0.75" fill="#E73C2B" stroke="#E73C2B" stroke-miterlimit="10" d="M249.925,0c-34.972,0-68.251,7.228-98.444,20.25
		L23.88,144.722C9.271,176.393,1.109,211.647,1.109,248.814c0,3.266,0.083,6.514,0.207,9.743L265.817,0.519
		C260.561,0.188,255.266,0,249.925,0z"/>
	<path opacity="0.75" fill="#E73C2B" stroke="#E73C2B" stroke-miterlimit="10" d="M338.309,16.23L15.211,331.441
		c7.312,20.771,17.32,40.264,29.576,58.098L395.693,47.194C378.151,34.493,358.879,24.05,338.309,16.23z"/>
	<path fill="#E73C2B" stroke="#E73C2B" stroke-miterlimit="10" d="M488.292,320.332L315.5,488.877
		C398.214,466.338,463.761,402.205,488.292,320.332z"/>
	<path fill="#E73C2B" stroke="#E73C2B" stroke-miterlimit="10" d="M265.817,0.519L1.316,258.557
		c0.981,25.467,5.818,49.938,13.895,72.885L338.309,16.23C315.549,7.577,291.21,2.12,265.817,0.519z"/>
	<path fill="#E73C2B" stroke="#E73C2B" stroke-miterlimit="10" d="M395.693,47.194L44.787,389.539
		c11.95,17.387,26.021,33.201,41.892,47.014L441.604,90.269C428.18,74.06,412.769,59.558,395.693,47.194z"/>
	<path fill="#E73C2B" stroke="#E73C2B" stroke-miterlimit="10" d="M476.305,145.462L141.052,472.537
		c22.583,11.01,47.058,18.736,72.838,22.479l283.002-276.097C493.785,193.002,486.751,168.298,476.305,145.462z"/>
	<path opacity="0.75" fill="#E73C2B" stroke="#E73C2B" stroke-miterlimit="10" d="M498.741,248.814
		c0-10.125-0.676-20.086-1.85-29.895L213.89,495.016c11.767,1.705,23.794,2.613,36.035,2.613c22.697,0,44.681-3.055,65.575-8.752
		l172.792-168.545C495.078,297.678,498.741,273.676,498.741,248.814z"/>
	<path opacity="0.75" fill="#E73C2B" stroke="#E73C2B" stroke-miterlimit="10" d="M441.604,90.269L86.679,436.553
		c16.377,14.258,34.652,26.367,54.373,35.984l335.253-327.075C467.175,125.496,455.444,106.98,441.604,90.269z"/>
</g>
</svg>
